<svg width="372" height="371" viewBox="0 0 372 371" fill="none" xmlns="http://www.w3.org/2000/svg">
<circle cx="58" cy="62" r="40" fill="#D9D9D9"/>
<circle cx="273" cy="280" r="25" fill="#D9D9D9"/>
<circle cx="185.5" cy="185.5" r="87.5" fill="#D9D9D9"/>
<mask id="mask0_1_9" style="mask-type:alpha" maskUnits="userSpaceOnUse" x="0" y="0" width="372" height="371">
<path fill-rule="evenodd" clip-rule="evenodd" d="M0 0H372V371H0V0ZM298 280C298 293.807 286.807 305 273 305C259.193 305 248 293.807 248 280C248 266.193 259.193 255 273 255C286.807 255 298 266.193 298 280ZM58 102C80.0914 102 98 84.0914 98 62C98 39.9086 80.0914 22 58 22C35.9086 22 18 39.9086 18 62C18 84.0914 35.9086 102 58 102Z" fill="#D9D9D9"/>
</mask>
<g mask="url(#mask0_1_9)">
<path d="M186 362.56C186 366.117 183.116 369.012 179.561 368.887C145.424 367.692 112.246 357.014 83.7751 337.99C53.5164 317.772 29.9327 289.035 16.0062 255.414C2.07964 221.792 -1.56417 184.796 5.53551 149.103C12.6352 113.411 30.1595 80.6252 55.8924 54.8923C81.6252 29.1595 114.411 11.6352 150.103 4.5355C185.796 -2.56417 222.792 1.07965 256.414 15.0062C290.035 28.9327 318.772 52.5165 338.99 82.7751C358.014 111.247 368.692 144.424 369.887 178.561C370.012 182.116 367.117 185 363.56 185V185C360.003 185 357.133 182.116 356.999 178.561C355.81 146.973 345.89 116.284 328.281 89.9308C309.478 61.7903 282.753 39.8574 251.485 26.9057C220.217 13.9541 185.81 10.5653 152.616 17.168C119.422 23.7707 88.9315 40.0683 64.9999 63.9999C41.0683 87.9314 24.7707 118.422 18.168 151.616C11.5653 184.81 14.9541 219.217 27.9057 250.485C40.8574 281.753 62.7903 308.478 90.9308 327.281C117.284 344.89 147.973 354.81 179.561 355.999C183.116 356.133 186 359.003 186 362.56V362.56Z" fill="#D9D9D9"/>
<path d="M269.784 86.2416C271.463 84.2433 274.45 83.9784 276.388 85.7255C301.725 108.562 317.524 140.198 320.492 174.295C323.596 209.964 312.404 245.406 289.377 272.823C266.35 300.24 233.374 317.387 197.705 320.492C163.608 323.459 129.719 313.362 102.848 292.352C100.792 290.745 100.537 287.757 102.216 285.758V285.758C103.894 283.76 106.87 283.509 108.93 285.111C133.877 304.512 165.286 313.827 196.886 311.077C230.058 308.19 260.725 292.244 282.14 266.746C303.555 241.248 313.964 208.287 311.077 175.114C308.327 143.514 293.726 114.188 270.307 92.9665C268.373 91.2143 268.106 88.2398 269.784 86.2416V86.2416Z" fill="#D9D9D9"/>
</g>
</svg>
